<?xml version="1.0" encoding="UTF-8"?>
<svg width="782.85pt" height="219.87pt" enable-background="new" version="1.1" viewBox="0 0 276.17 77.566" xmlns="http://www.w3.org/2000/svg" xmlns:cc="http://creativecommons.org/ns#" xmlns:dc="http://purl.org/dc/elements/1.1/" xmlns:rdf="http://www.w3.org/1999/02/22-rdf-syntax-ns#" xmlns:xlink="http://www.w3.org/1999/xlink">
 <defs>
  <filter id="filter1371" x="-.012833" y="-.045247" width="1.0257" height="1.0905" color-interpolation-filters="sRGB">
   <feGaussianBlur stdDeviation="1.2495002"/>
  </filter>
  <linearGradient id="linearGradient2508" x1="29.51" x2="225.49" y1="10.432" y2="223.65" gradientUnits="userSpaceOnUse">
   <stop stop-color="#fff" offset="0"/>
   <stop stop-color="#fff" stop-opacity="0" offset="1"/>
  </linearGradient>
 </defs>
 <metadata>
  <rdf:RDF>
   <cc:Work rdf:about="">
    <dc:format>image/svg+xml</dc:format>
    <dc:type rdf:resource="http://purl.org/dc/dcmitype/StillImage"/>
   </cc:Work>
  </rdf:RDF>
 </metadata>
 <g display="none">
  <rect x="-10.583" y="-15.875" width="311.94" height="117.74" fill="#004cff" opacity=".87419" stroke-width=".035278"/>
 </g>
 <g filter="url(#filter1371)" opacity=".125">
  <g transform="translate(-26.973 -12.483)">
   <circle cx="42.512" cy="38.389" r="4.2333"/>
   <circle cx="42.495" cy="64.117" r="4.2333"/>
   <path d="m72.3 51.24 18.309 20.473c1.4775 1.812 1.2064 4.4786-0.60563 5.9561-1.812 1.4775-4.4786 1.2063-5.9561-0.60564l-17.403-19.42-0.0061 22.528c-3e-6 2.338-1.8953 4.2333-4.2333 4.2333s-4.2333-1.8953-4.2333-4.2333l0.0193-28.914"/>
   <path d="m58.19 51.257 0.01928-28.896c2e-6 -2.338 1.8953-4.2333 4.2333-4.2333s4.2333 1.8953 4.2333 4.2333l-0.01578 22.482 17.25-19.528c1.5087-1.7861 4.1797-2.0109 5.9657-0.50217l-1e-5 -3e-6c0.83059 0.70161 1.3235 1.6546 1.4615 2.653 0.15875 1.1486-0.15225 2.3573-0.95936 3.3128l-18.078 20.462"/>
   <g aria-label="omunitin">
    <path d="m100.98 65.307q-4.1148 0-7.2644-1.778-3.1496-1.8288-4.9784-4.9784-1.778-3.2004-1.778-7.3152 0-4.1656 1.778-7.3152 1.8288-3.2004 4.9784-4.9784 3.1496-1.8288 7.2644-1.8288 4.064 0 7.2136 1.8288 3.1496 1.778 4.9276 4.9784 1.8288 3.1496 1.8288 7.3152 0 4.1148-1.778 7.3152-1.778 3.1496-4.9276 4.9784-3.1496 1.778-7.2644 1.778zm0-4.572q2.6416 0 4.6736-1.2192t3.1496-3.3528q1.1684-2.1336 1.1684-4.9276t-1.1684-4.9276q-1.1176-2.1844-3.1496-3.4036t-4.6736-1.2192q-2.6416 0-4.6736 1.2192t-3.2004 3.4036q-1.1684 2.1336-1.1684 4.9276t1.1684 4.9276 3.2004 3.3528 4.6736 1.2192z" style="font-variant-caps:normal;font-variant-east-asian:normal;font-variant-ligatures:normal;font-variant-numeric:normal;font-variation-settings:'wght' 700"/>
    <path d="m155.63 65.155q-1.1176 0-1.8796-0.7112-0.7112-0.762-0.7112-1.8796v-14.529q0-3.2004-1.5748-4.7244-1.5748-1.5748-4.1148-1.5748-2.6416 0-4.3688 1.8288-1.6764 1.8288-1.6764 4.6736h-4.2164q0-3.302 1.4224-5.7912 1.4224-2.54 3.9624-3.9624 2.5908-1.4224 5.8928-1.4224 2.8956 0 5.1308 1.27t3.4544 3.7592q1.27 2.4384 1.27 5.9436v14.529q0 1.1176-0.7112 1.8796-0.7112 0.7112-1.8796 0.7112zm-33.884 0q-1.1176 0-1.8796-0.7112-0.7112-0.762-0.7112-1.8796v-22.606q0-1.1684 0.7112-1.8796 0.762-0.7112 1.8796-0.7112 1.1684 0 1.8796 0.7112t0.7112 1.8796v22.606q0 1.1176-0.7112 1.8796-0.7112 0.7112-1.8796 0.7112zm16.967 0q-1.1176 0-1.8796-0.7112-0.7112-0.762-0.7112-1.8796v-14.529q0-3.2004-1.5748-4.7244-1.5748-1.5748-4.1148-1.5748-2.6416 0-4.3688 1.8288t-1.7272 4.6736h-3.2004q0-3.302 1.3208-5.7912 1.3208-2.54 3.6576-3.9624t5.334-1.4224q2.8956 0 5.1308 1.27t3.4544 3.7592q1.27 2.4384 1.27 5.9436v14.529q0 1.1176-0.7112 1.8796-0.7112 0.7112-1.8796 0.7112z" style="font-variant-caps:normal;font-variant-east-asian:normal;font-variant-ligatures:normal;font-variant-numeric:normal;font-variation-settings:'wght' 700"/>
    <path d="m174.91 65.358q-3.5052 0-6.2992-1.4732-2.7432-1.524-4.3688-4.4196-1.5748-2.8956-1.5748-7.112v-12.497q0-1.1176 0.7112-1.8288 0.762-0.762 1.8796-0.762t1.8288 0.762q0.762 0.7112 0.762 1.8288v12.497q0 2.8448 1.0668 4.7244 1.0668 1.8288 2.8956 2.7432 1.8288 0.8636 4.1148 0.8636 2.1844 0 3.8608-0.8636 1.7272-0.8636 2.7432-2.3368t1.016-3.302h3.2004q0 3.1496-1.5748 5.6896-1.524 2.54-4.2164 4.0132-2.6416 1.4732-6.0452 1.4732zm11.227-0.254q-1.1176 0-1.8796-0.7112-0.7112-0.762-0.7112-1.8796v-22.657q0-1.1684 0.7112-1.8796 0.762-0.7112 1.8796-0.7112 1.1684 0 1.8796 0.7112t0.7112 1.8796v22.657q0 1.1176-0.7112 1.8796-0.7112 0.7112-1.8796 0.7112z" style="font-variant-caps:normal;font-variant-east-asian:normal;font-variant-ligatures:normal;font-variant-numeric:normal;font-variation-settings:'wght' 700"/>
    <path d="m217.76 65.155q-1.1176 0-1.8796-0.7112-0.7112-0.762-0.7112-1.8796v-12.497q0-2.8956-1.0668-4.7244t-2.8956-2.6924q-1.778-0.9144-4.1148-0.9144-2.1336 0-3.8608 0.8636t-2.7432 2.3368q-1.016 1.4224-1.016 3.302h-3.2004q0-3.2004 1.524-5.6896 1.5748-2.54 4.2672-4.0132t6.0452-1.4732q3.5052 0 6.2484 1.524 2.794 1.4732 4.3688 4.3688 1.6256 2.8956 1.6256 7.112v12.497q0 1.1176-0.762 1.8796-0.7112 0.7112-1.8288 0.7112zm-20.879 0q-1.1176 0-1.8796-0.7112-0.7112-0.762-0.7112-1.8796v-22.657q0-1.1684 0.7112-1.8796 0.762-0.7112 1.8796-0.7112 1.1684 0 1.8796 0.7112t0.7112 1.8796v22.657q0 1.1176-0.7112 1.8796-0.7112 0.7112-1.8796 0.7112z" style="font-variant-caps:normal;font-variant-east-asian:normal;font-variant-ligatures:normal;font-variant-numeric:normal;font-variation-settings:'wght' 700"/>
    <path d="m228.47 65.104q-1.1176 0-1.8796-0.7112-0.7112-0.762-0.7112-1.8796v-22.606q0-1.1684 0.7112-1.8796 0.762-0.7112 1.8796-0.7112 1.1684 0 1.8796 0.7112t0.7112 1.8796v22.606q0 1.1176-0.7112 1.8796-0.7112 0.7112-1.8796 0.7112zm0-32.309q-1.3716 0-2.3876-0.9652-0.9652-1.016-0.9652-2.3876t0.9652-2.3368q1.016-1.016 2.3876-1.016t2.3368 1.016q1.016 0.9652 1.016 2.3368t-1.016 2.3876q-0.9652 0.9652-2.3368 0.9652z" style="font-variant-caps:normal;font-variant-east-asian:normal;font-variant-ligatures:normal;font-variant-numeric:normal;font-variation-settings:'wght' 700"/>
    <path d="m247.3 65.104q-2.54 0-4.572-1.27-2.032-1.3208-3.2004-3.556t-1.1684-5.0292v-24.232q0-1.1176 0.7112-1.8288t1.8288-0.7112 1.8288 0.7112 0.7112 1.8288v24.232q0 2.032 1.1176 3.4036t2.7432 1.3716h1.7272q0.9144 0 1.524 0.7112 0.6604 0.7112 0.6604 1.8288t-0.8636 1.8288q-0.8128 0.7112-2.1336 0.7112zm-11.278-22.403q-1.0668 0-1.7272-0.6096t-0.6604-1.524q0-1.016 0.6604-1.6256t1.7272-0.6096h11.735q1.0668 0 1.7272 0.6096t0.6604 1.6256q0 0.9144-0.6604 1.524t-1.7272 0.6096z" style="font-variant-caps:normal;font-variant-east-asian:normal;font-variant-ligatures:normal;font-variant-numeric:normal;font-variation-settings:'wght' 700"/>
    <path d="m257.07 65.104q-1.1176 0-1.8796-0.7112-0.7112-0.762-0.7112-1.8796v-22.606q0-1.1684 0.7112-1.8796 0.762-0.7112 1.8796-0.7112 1.1684 0 1.8796 0.7112t0.7112 1.8796v22.606q0 1.1176-0.7112 1.8796-0.7112 0.7112-1.8796 0.7112zm0-32.309q-1.3716 0-2.3876-0.9652-0.9652-1.016-0.9652-2.3876t0.9652-2.3368q1.016-1.016 2.3876-1.016t2.3368 1.016q1.016 0.9652 1.016 2.3368t-1.016 2.3876q-0.9652 0.9652-2.3368 0.9652z" style="font-variant-caps:normal;font-variant-east-asian:normal;font-variant-ligatures:normal;font-variant-numeric:normal;font-variation-settings:'wght' 700"/>
    <path d="m289.27 65.155q-1.1176 0-1.8796-0.7112-0.7112-0.762-0.7112-1.8796v-12.497q0-2.8956-1.0668-4.7244t-2.8956-2.6924q-1.778-0.9144-4.1148-0.9144-2.1336 0-3.8608 0.8636t-2.7432 2.3368q-1.016 1.4224-1.016 3.302h-3.2004q0-3.2004 1.524-5.6896 1.5748-2.54 4.2672-4.0132t6.0452-1.4732q3.5052 0 6.2484 1.524 2.794 1.4732 4.3688 4.3688 1.6256 2.8956 1.6256 7.112v12.497q0 1.1176-0.762 1.8796-0.7112 0.7112-1.8288 0.7112zm-20.879 0q-1.1176 0-1.8796-0.7112-0.7112-0.762-0.7112-1.8796v-22.657q0-1.1684 0.7112-1.8796 0.762-0.7112 1.8796-0.7112 1.1684 0 1.8796 0.7112t0.7112 1.8796v22.657q0 1.1176-0.7112 1.8796-0.7112 0.7112-1.8796 0.7112z" style="font-variant-caps:normal;font-variant-east-asian:normal;font-variant-ligatures:normal;font-variant-numeric:normal;font-variation-settings:'wght' 700"/>
   </g>
   <circle cx="228.39" cy="29.334" r="4.2333"/>
   <circle cx="256.98" cy="29.4" r="4.2333"/>
  </g>
 </g>
 <g transform="translate(-26.973 -12.483)">
  <g>
   <path d="m46.745 38.389a4.2333 4.2333 0 0 1-4.2333 4.2333 4.2333 4.2333 0 0 1-4.2333-4.2333 4.2333 4.2333 0 0 1 4.2333-4.2333 4.2333 4.2333 0 0 1 4.2333 4.2333" fill="#98c725"/>
   <path d="m46.728 64.117a4.2333 4.2333 0 0 1-4.2333 4.2333 4.2333 4.2333 0 0 1-4.2333-4.2333 4.2333 4.2333 0 0 1 4.2333-4.2333 4.2333 4.2333 0 0 1 4.2333 4.2333" fill="#72a310"/>
   <path d="m72.3 51.24 18.309 20.473c1.4775 1.812 1.2064 4.4786-0.60563 5.9561-1.812 1.4775-4.4786 1.2063-5.9561-0.60564l-17.403-19.42-0.0061 22.528c-3e-6 2.338-1.8953 4.2333-4.2333 4.2333s-4.2333-1.8953-4.2333-4.2333l0.0193-28.914" fill="#72a310"/>
   <path d="m58.19 51.257 0.01928-28.896c2e-6 -2.338 1.8953-4.2333 4.2333-4.2333s4.2333 1.8953 4.2333 4.2333l-0.01578 22.482 17.25-19.528c1.5087-1.7861 4.1797-2.0109 5.9657-0.50217l-1e-5 -3e-6c0.83059 0.70161 1.3235 1.6546 1.4615 2.653 0.15875 1.1486-0.15225 2.3573-0.95936 3.3128l-18.078 20.462" fill="#98c725"/>
   <g fill="#85b51b" stroke-width=".26458" aria-label="omunitin">
    <path d="m100.98 65.307q-4.1148 0-7.2644-1.778-3.1496-1.8288-4.9784-4.9784-1.778-3.2004-1.778-7.3152 0-4.1656 1.778-7.3152 1.8288-3.2004 4.9784-4.9784 3.1496-1.8288 7.2644-1.8288 4.064 0 7.2136 1.8288 3.1496 1.778 4.9276 4.9784 1.8288 3.1496 1.8288 7.3152 0 4.1148-1.778 7.3152-1.778 3.1496-4.9276 4.9784-3.1496 1.778-7.2644 1.778zm0-4.572q2.6416 0 4.6736-1.2192t3.1496-3.3528q1.1684-2.1336 1.1684-4.9276t-1.1684-4.9276q-1.1176-2.1844-3.1496-3.4036t-4.6736-1.2192q-2.6416 0-4.6736 1.2192t-3.2004 3.4036q-1.1684 2.1336-1.1684 4.9276t1.1684 4.9276 3.2004 3.3528 4.6736 1.2192z" style="font-variant-caps:normal;font-variant-east-asian:normal;font-variant-ligatures:normal;font-variant-numeric:normal;font-variation-settings:'wght' 700"/>
    <path d="m155.63 65.155q-1.1176 0-1.8796-0.7112-0.7112-0.762-0.7112-1.8796v-14.529q0-3.2004-1.5748-4.7244-1.5748-1.5748-4.1148-1.5748-2.6416 0-4.3688 1.8288-1.6764 1.8288-1.6764 4.6736h-4.2164q0-3.302 1.4224-5.7912 1.4224-2.54 3.9624-3.9624 2.5908-1.4224 5.8928-1.4224 2.8956 0 5.1308 1.27t3.4544 3.7592q1.27 2.4384 1.27 5.9436v14.529q0 1.1176-0.7112 1.8796-0.7112 0.7112-1.8796 0.7112zm-33.884 0q-1.1176 0-1.8796-0.7112-0.7112-0.762-0.7112-1.8796v-22.606q0-1.1684 0.7112-1.8796 0.762-0.7112 1.8796-0.7112 1.1684 0 1.8796 0.7112t0.7112 1.8796v22.606q0 1.1176-0.7112 1.8796-0.7112 0.7112-1.8796 0.7112zm16.967 0q-1.1176 0-1.8796-0.7112-0.7112-0.762-0.7112-1.8796v-14.529q0-3.2004-1.5748-4.7244-1.5748-1.5748-4.1148-1.5748-2.6416 0-4.3688 1.8288t-1.7272 4.6736h-3.2004q0-3.302 1.3208-5.7912 1.3208-2.54 3.6576-3.9624t5.334-1.4224q2.8956 0 5.1308 1.27t3.4544 3.7592q1.27 2.4384 1.27 5.9436v14.529q0 1.1176-0.7112 1.8796-0.7112 0.7112-1.8796 0.7112z" style="font-variant-caps:normal;font-variant-east-asian:normal;font-variant-ligatures:normal;font-variant-numeric:normal;font-variation-settings:'wght' 700"/>
    <path d="m174.91 65.358q-3.5052 0-6.2992-1.4732-2.7432-1.524-4.3688-4.4196-1.5748-2.8956-1.5748-7.112v-12.497q0-1.1176 0.7112-1.8288 0.762-0.762 1.8796-0.762t1.8288 0.762q0.762 0.7112 0.762 1.8288v12.497q0 2.8448 1.0668 4.7244 1.0668 1.8288 2.8956 2.7432 1.8288 0.8636 4.1148 0.8636 2.1844 0 3.8608-0.8636 1.7272-0.8636 2.7432-2.3368t1.016-3.302h3.2004q0 3.1496-1.5748 5.6896-1.524 2.54-4.2164 4.0132-2.6416 1.4732-6.0452 1.4732zm11.227-0.254q-1.1176 0-1.8796-0.7112-0.7112-0.762-0.7112-1.8796v-22.657q0-1.1684 0.7112-1.8796 0.762-0.7112 1.8796-0.7112 1.1684 0 1.8796 0.7112t0.7112 1.8796v22.657q0 1.1176-0.7112 1.8796-0.7112 0.7112-1.8796 0.7112z" style="font-variant-caps:normal;font-variant-east-asian:normal;font-variant-ligatures:normal;font-variant-numeric:normal;font-variation-settings:'wght' 700"/>
    <path d="m217.76 65.155q-1.1176 0-1.8796-0.7112-0.7112-0.762-0.7112-1.8796v-12.497q0-2.8956-1.0668-4.7244t-2.8956-2.6924q-1.778-0.9144-4.1148-0.9144-2.1336 0-3.8608 0.8636t-2.7432 2.3368q-1.016 1.4224-1.016 3.302h-3.2004q0-3.2004 1.524-5.6896 1.5748-2.54 4.2672-4.0132t6.0452-1.4732q3.5052 0 6.2484 1.524 2.794 1.4732 4.3688 4.3688 1.6256 2.8956 1.6256 7.112v12.497q0 1.1176-0.762 1.8796-0.7112 0.7112-1.8288 0.7112zm-20.879 0q-1.1176 0-1.8796-0.7112-0.7112-0.762-0.7112-1.8796v-22.657q0-1.1684 0.7112-1.8796 0.762-0.7112 1.8796-0.7112 1.1684 0 1.8796 0.7112t0.7112 1.8796v22.657q0 1.1176-0.7112 1.8796-0.7112 0.7112-1.8796 0.7112z" style="font-variant-caps:normal;font-variant-east-asian:normal;font-variant-ligatures:normal;font-variant-numeric:normal;font-variation-settings:'wght' 700"/>
    <path d="m228.47 65.104c-0.74507 0-1.3716-0.23707-1.8796-0.7112-0.47413-0.508-0.7112-1.1345-0.7112-1.8796v-22.606c0-0.77893 0.23707-1.4055 0.7112-1.8796 0.508-0.47413 1.1345-0.7112 1.8796-0.7112 0.77893 0 1.4055 0.23707 1.8796 0.7112s0.7112 1.1007 0.7112 1.8796v22.606c0 0.74507-0.23707 1.3716-0.7112 1.8796-0.47413 0.47413-1.1007 0.7112-1.8796 0.7112z" style="font-variant-caps:normal;font-variant-east-asian:normal;font-variant-ligatures:normal;font-variant-numeric:normal;font-variation-settings:'wght' 700"/>
    <path d="m247.3 65.104q-2.54 0-4.572-1.27-2.032-1.3208-3.2004-3.556t-1.1684-5.0292v-24.232q0-1.1176 0.7112-1.8288t1.8288-0.7112 1.8288 0.7112 0.7112 1.8288v24.232q0 2.032 1.1176 3.4036t2.7432 1.3716h1.7272q0.9144 0 1.524 0.7112 0.6604 0.7112 0.6604 1.8288t-0.8636 1.8288q-0.8128 0.7112-2.1336 0.7112zm-11.278-22.403q-1.0668 0-1.7272-0.6096t-0.6604-1.524q0-1.016 0.6604-1.6256t1.7272-0.6096h11.735q1.0668 0 1.7272 0.6096t0.6604 1.6256q0 0.9144-0.6604 1.524t-1.7272 0.6096z" style="font-variant-caps:normal;font-variant-east-asian:normal;font-variant-ligatures:normal;font-variant-numeric:normal;font-variation-settings:'wght' 700"/>
    <path d="m257.07 65.104c-0.74507 0-1.3716-0.23707-1.8796-0.7112-0.47413-0.508-0.7112-1.1345-0.7112-1.8796v-22.606c0-0.77893 0.23707-1.4055 0.7112-1.8796 0.508-0.47413 1.1345-0.7112 1.8796-0.7112 0.77893 0 1.4055 0.23707 1.8796 0.7112s0.7112 1.1007 0.7112 1.8796v22.606c0 0.74507-0.23707 1.3716-0.7112 1.8796-0.47413 0.47413-1.1007 0.7112-1.8796 0.7112z" style="font-variant-caps:normal;font-variant-east-asian:normal;font-variant-ligatures:normal;font-variant-numeric:normal;font-variation-settings:'wght' 700"/>
    <path d="m289.27 65.155q-1.1176 0-1.8796-0.7112-0.7112-0.762-0.7112-1.8796v-12.497q0-2.8956-1.0668-4.7244t-2.8956-2.6924q-1.778-0.9144-4.1148-0.9144-2.1336 0-3.8608 0.8636t-2.7432 2.3368q-1.016 1.4224-1.016 3.302h-3.2004q0-3.2004 1.524-5.6896 1.5748-2.54 4.2672-4.0132t6.0452-1.4732q3.5052 0 6.2484 1.524 2.794 1.4732 4.3688 4.3688 1.6256 2.8956 1.6256 7.112v12.497q0 1.1176-0.762 1.8796-0.7112 0.7112-1.8288 0.7112zm-20.879 0q-1.1176 0-1.8796-0.7112-0.7112-0.762-0.7112-1.8796v-22.657q0-1.1684 0.7112-1.8796 0.762-0.7112 1.8796-0.7112 1.1684 0 1.8796 0.7112t0.7112 1.8796v22.657q0 1.1176-0.7112 1.8796-0.7112 0.7112-1.8796 0.7112z" style="font-variant-caps:normal;font-variant-east-asian:normal;font-variant-ligatures:normal;font-variant-numeric:normal;font-variation-settings:'wght' 700"/>
   </g>
   <path d="m232.62 29.334a4.2333 4.2333 0 0 1-4.2333 4.2333 4.2333 4.2333 0 0 1-4.2333-4.2333 4.2333 4.2333 0 0 1 4.2333-4.2333 4.2333 4.2333 0 0 1 4.2333 4.2333" fill="#98c725"/>
   <path d="m261.22 29.4a4.2333 4.2333 0 0 1-4.2333 4.2333 4.2333 4.2333 0 0 1-4.2333-4.2333 4.2333 4.2333 0 0 1 4.2333-4.2333 4.2333 4.2333 0 0 1 4.2333 4.2333" fill="#98c725"/>
  </g>
 </g>
 <g>
  <g transform="translate(-26.973 -12.483)" fill="url(#linearGradient2508)" opacity=".12">
   <path d="m46.745 38.389a4.2333 4.2333 0 0 1-4.2333 4.2333 4.2333 4.2333 0 0 1-4.2333-4.2333 4.2333 4.2333 0 0 1 4.2333-4.2333 4.2333 4.2333 0 0 1 4.2333 4.2333"/>
   <path d="m46.728 64.117a4.2333 4.2333 0 0 1-4.2333 4.2333 4.2333 4.2333 0 0 1-4.2333-4.2333 4.2333 4.2333 0 0 1 4.2333-4.2333 4.2333 4.2333 0 0 1 4.2333 4.2333"/>
   <path d="m72.3 51.24 18.309 20.473c1.4775 1.812 1.2064 4.4786-0.60563 5.9561-1.812 1.4775-4.4786 1.2063-5.9561-0.60564l-17.403-19.42-0.0061 22.528c-3e-6 2.338-1.8953 4.2333-4.2333 4.2333s-4.2333-1.8953-4.2333-4.2333l0.0193-28.914"/>
   <path d="m58.19 51.257 0.01928-28.896c2e-6 -2.338 1.8953-4.2333 4.2333-4.2333s4.2333 1.8953 4.2333 4.2333l-0.01578 22.482 17.25-19.528c1.5087-1.7861 4.1797-2.0109 5.9657-0.50217l-1e-5 -3e-6c0.83059 0.70161 1.3235 1.6546 1.4615 2.653 0.15875 1.1486-0.15225 2.3573-0.95936 3.3128l-18.078 20.462"/>
   <g stroke-width=".26458" aria-label="omunitin">
    <path d="m100.98 65.307q-4.1148 0-7.2644-1.778-3.1496-1.8288-4.9784-4.9784-1.778-3.2004-1.778-7.3152 0-4.1656 1.778-7.3152 1.8288-3.2004 4.9784-4.9784 3.1496-1.8288 7.2644-1.8288 4.064 0 7.2136 1.8288 3.1496 1.778 4.9276 4.9784 1.8288 3.1496 1.8288 7.3152 0 4.1148-1.778 7.3152-1.778 3.1496-4.9276 4.9784-3.1496 1.778-7.2644 1.778zm0-4.572q2.6416 0 4.6736-1.2192t3.1496-3.3528q1.1684-2.1336 1.1684-4.9276t-1.1684-4.9276q-1.1176-2.1844-3.1496-3.4036t-4.6736-1.2192q-2.6416 0-4.6736 1.2192t-3.2004 3.4036q-1.1684 2.1336-1.1684 4.9276t1.1684 4.9276 3.2004 3.3528 4.6736 1.2192z" style="font-variant-caps:normal;font-variant-east-asian:normal;font-variant-ligatures:normal;font-variant-numeric:normal;font-variation-settings:'wght' 700"/>
    <path d="m155.63 65.155q-1.1176 0-1.8796-0.7112-0.7112-0.762-0.7112-1.8796v-14.529q0-3.2004-1.5748-4.7244-1.5748-1.5748-4.1148-1.5748-2.6416 0-4.3688 1.8288-1.6764 1.8288-1.6764 4.6736h-4.2164q0-3.302 1.4224-5.7912 1.4224-2.54 3.9624-3.9624 2.5908-1.4224 5.8928-1.4224 2.8956 0 5.1308 1.27t3.4544 3.7592q1.27 2.4384 1.27 5.9436v14.529q0 1.1176-0.7112 1.8796-0.7112 0.7112-1.8796 0.7112zm-33.884 0q-1.1176 0-1.8796-0.7112-0.7112-0.762-0.7112-1.8796v-22.606q0-1.1684 0.7112-1.8796 0.762-0.7112 1.8796-0.7112 1.1684 0 1.8796 0.7112t0.7112 1.8796v22.606q0 1.1176-0.7112 1.8796-0.7112 0.7112-1.8796 0.7112zm16.967 0q-1.1176 0-1.8796-0.7112-0.7112-0.762-0.7112-1.8796v-14.529q0-3.2004-1.5748-4.7244-1.5748-1.5748-4.1148-1.5748-2.6416 0-4.3688 1.8288t-1.7272 4.6736h-3.2004q0-3.302 1.3208-5.7912 1.3208-2.54 3.6576-3.9624t5.334-1.4224q2.8956 0 5.1308 1.27t3.4544 3.7592q1.27 2.4384 1.27 5.9436v14.529q0 1.1176-0.7112 1.8796-0.7112 0.7112-1.8796 0.7112z" style="font-variant-caps:normal;font-variant-east-asian:normal;font-variant-ligatures:normal;font-variant-numeric:normal;font-variation-settings:'wght' 700"/>
    <path d="m174.91 65.358q-3.5052 0-6.2992-1.4732-2.7432-1.524-4.3688-4.4196-1.5748-2.8956-1.5748-7.112v-12.497q0-1.1176 0.7112-1.8288 0.762-0.762 1.8796-0.762t1.8288 0.762q0.762 0.7112 0.762 1.8288v12.497q0 2.8448 1.0668 4.7244 1.0668 1.8288 2.8956 2.7432 1.8288 0.8636 4.1148 0.8636 2.1844 0 3.8608-0.8636 1.7272-0.8636 2.7432-2.3368t1.016-3.302h3.2004q0 3.1496-1.5748 5.6896-1.524 2.54-4.2164 4.0132-2.6416 1.4732-6.0452 1.4732zm11.227-0.254q-1.1176 0-1.8796-0.7112-0.7112-0.762-0.7112-1.8796v-22.657q0-1.1684 0.7112-1.8796 0.762-0.7112 1.8796-0.7112 1.1684 0 1.8796 0.7112t0.7112 1.8796v22.657q0 1.1176-0.7112 1.8796-0.7112 0.7112-1.8796 0.7112z" style="font-variant-caps:normal;font-variant-east-asian:normal;font-variant-ligatures:normal;font-variant-numeric:normal;font-variation-settings:'wght' 700"/>
    <path d="m217.76 65.155q-1.1176 0-1.8796-0.7112-0.7112-0.762-0.7112-1.8796v-12.497q0-2.8956-1.0668-4.7244t-2.8956-2.6924q-1.778-0.9144-4.1148-0.9144-2.1336 0-3.8608 0.8636t-2.7432 2.3368q-1.016 1.4224-1.016 3.302h-3.2004q0-3.2004 1.524-5.6896 1.5748-2.54 4.2672-4.0132t6.0452-1.4732q3.5052 0 6.2484 1.524 2.794 1.4732 4.3688 4.3688 1.6256 2.8956 1.6256 7.112v12.497q0 1.1176-0.762 1.8796-0.7112 0.7112-1.8288 0.7112zm-20.879 0q-1.1176 0-1.8796-0.7112-0.7112-0.762-0.7112-1.8796v-22.657q0-1.1684 0.7112-1.8796 0.762-0.7112 1.8796-0.7112 1.1684 0 1.8796 0.7112t0.7112 1.8796v22.657q0 1.1176-0.7112 1.8796-0.7112 0.7112-1.8796 0.7112z" style="font-variant-caps:normal;font-variant-east-asian:normal;font-variant-ligatures:normal;font-variant-numeric:normal;font-variation-settings:'wght' 700"/>
    <path d="m228.47 65.104c-0.74507 0-1.3716-0.23707-1.8796-0.7112-0.47413-0.508-0.7112-1.1345-0.7112-1.8796v-22.606c0-0.77893 0.23707-1.4055 0.7112-1.8796 0.508-0.47413 1.1345-0.7112 1.8796-0.7112 0.77893 0 1.4055 0.23707 1.8796 0.7112s0.7112 1.1007 0.7112 1.8796v22.606c0 0.74507-0.23707 1.3716-0.7112 1.8796-0.47413 0.47413-1.1007 0.7112-1.8796 0.7112z" style="font-variant-caps:normal;font-variant-east-asian:normal;font-variant-ligatures:normal;font-variant-numeric:normal;font-variation-settings:'wght' 700"/>
    <path d="m247.3 65.104q-2.54 0-4.572-1.27-2.032-1.3208-3.2004-3.556t-1.1684-5.0292v-24.232q0-1.1176 0.7112-1.8288t1.8288-0.7112 1.8288 0.7112 0.7112 1.8288v24.232q0 2.032 1.1176 3.4036t2.7432 1.3716h1.7272q0.9144 0 1.524 0.7112 0.6604 0.7112 0.6604 1.8288t-0.8636 1.8288q-0.8128 0.7112-2.1336 0.7112zm-11.278-22.403q-1.0668 0-1.7272-0.6096t-0.6604-1.524q0-1.016 0.6604-1.6256t1.7272-0.6096h11.735q1.0668 0 1.7272 0.6096t0.6604 1.6256q0 0.9144-0.6604 1.524t-1.7272 0.6096z" style="font-variant-caps:normal;font-variant-east-asian:normal;font-variant-ligatures:normal;font-variant-numeric:normal;font-variation-settings:'wght' 700"/>
    <path d="m257.07 65.104c-0.74507 0-1.3716-0.23707-1.8796-0.7112-0.47413-0.508-0.7112-1.1345-0.7112-1.8796v-22.606c0-0.77893 0.23707-1.4055 0.7112-1.8796 0.508-0.47413 1.1345-0.7112 1.8796-0.7112 0.77893 0 1.4055 0.23707 1.8796 0.7112s0.7112 1.1007 0.7112 1.8796v22.606c0 0.74507-0.23707 1.3716-0.7112 1.8796-0.47413 0.47413-1.1007 0.7112-1.8796 0.7112z" style="font-variant-caps:normal;font-variant-east-asian:normal;font-variant-ligatures:normal;font-variant-numeric:normal;font-variation-settings:'wght' 700"/>
    <path d="m289.27 65.155q-1.1176 0-1.8796-0.7112-0.7112-0.762-0.7112-1.8796v-12.497q0-2.8956-1.0668-4.7244t-2.8956-2.6924q-1.778-0.9144-4.1148-0.9144-2.1336 0-3.8608 0.8636t-2.7432 2.3368q-1.016 1.4224-1.016 3.302h-3.2004q0-3.2004 1.524-5.6896 1.5748-2.54 4.2672-4.0132t6.0452-1.4732q3.5052 0 6.2484 1.524 2.794 1.4732 4.3688 4.3688 1.6256 2.8956 1.6256 7.112v12.497q0 1.1176-0.762 1.8796-0.7112 0.7112-1.8288 0.7112zm-20.879 0q-1.1176 0-1.8796-0.7112-0.7112-0.762-0.7112-1.8796v-22.657q0-1.1684 0.7112-1.8796 0.762-0.7112 1.8796-0.7112 1.1684 0 1.8796 0.7112t0.7112 1.8796v22.657q0 1.1176-0.7112 1.8796-0.7112 0.7112-1.8796 0.7112z" style="font-variant-caps:normal;font-variant-east-asian:normal;font-variant-ligatures:normal;font-variant-numeric:normal;font-variation-settings:'wght' 700"/>
   </g>
   <path d="m232.62 29.334a4.2333 4.2333 0 0 1-4.2333 4.2333 4.2333 4.2333 0 0 1-4.2333-4.2333 4.2333 4.2333 0 0 1 4.2333-4.2333 4.2333 4.2333 0 0 1 4.2333 4.2333"/>
   <path d="m261.22 29.4a4.2333 4.2333 0 0 1-4.2333 4.2333 4.2333 4.2333 0 0 1-4.2333-4.2333 4.2333 4.2333 0 0 1 4.2333-4.2333 4.2333 4.2333 0 0 1 4.2333 4.2333"/>
  </g>
 </g>
</svg>
