<?xml version="1.0" encoding="UTF-8" standalone="no"?>
<svg
   enable-background="new 0 0 56 56"
   version="1.1"
   viewBox="0 0 56 56"
   xml:space="preserve"
   id="svg4"
   sodipodi:docname="menu.svg"
   inkscape:version="1.1.2 (0a00cf5339, 2022-02-04)"
   xmlns:inkscape="http://www.inkscape.org/namespaces/inkscape"
   xmlns:sodipodi="http://sodipodi.sourceforge.net/DTD/sodipodi-0.dtd"
   xmlns="http://www.w3.org/2000/svg"
   xmlns:svg="http://www.w3.org/2000/svg"><defs
   id="defs8" /><sodipodi:namedview
   id="namedview6"
   pagecolor="#ffffff"
   bordercolor="#666666"
   borderopacity="1.0"
   inkscape:pageshadow="2"
   inkscape:pageopacity="0.0"
   inkscape:pagecheckerboard="0"
   showgrid="false"
   inkscape:zoom="5.1596724"
   inkscape:cx="28.199465"
   inkscape:cy="28.005654"
   inkscape:window-width="1366"
   inkscape:window-height="704"
   inkscape:window-x="0"
   inkscape:window-y="0"
   inkscape:window-maximized="1"
   inkscape:current-layer="svg4" />
<rect
   style="fill:#a3cd3d;fill-opacity:1"
   id="rect1090"
   width="38.594521"
   height="35.579517"
   x="9.3792887"
   y="9.6482763" /><path
   d="m28 0c-15.439 0-28 12.561-28 28s12.561 28 28 28 28-12.561 28-28-12.561-28-28-28zm12 41h-24c-1.104 0-2-0.896-2-2s0.896-2 2-2h24c1.104 0 2 0.896 2 2s-0.896 2-2 2zm0-11h-24c-1.104 0-2-0.896-2-2s0.896-2 2-2h24c1.104 0 2 0.896 2 2s-0.896 2-2 2zm0-11h-24c-1.104 0-2-0.896-2-2s0.896-2 2-2h24c1.104 0 2 0.896 2 2s-0.896 2-2 2z"
   id="path2"
   style="fill:#7aa81e;fill-opacity:1" />
</svg>
