<?xml version="1.0" encoding="UTF-8"?>
<svg enable-background="new 0 0 459 459" version="1.1" viewBox="0 0 459 459" xml:space="preserve" xmlns="http://www.w3.org/2000/svg">

	
		<circle cx="241.71" cy="227.18" r="175.55" fill="#a0cc37"/><path d="m229.5 0c-126.75 0-229.5 102.75-229.5 229.5s102.75 229.5 229.5 229.5 229.5-102.75 229.5-229.5-102.75-229.5-229.5-229.5zm147.44 266.84c-3.704 5.5-9.44 9.303-15.948 10.572-1.589 0.31-3.192 0.463-4.788 0.463-4.94 0-9.808-1.464-13.965-4.264l-46.315-31.192c-11.452-7.712-14.483-23.249-6.771-34.701 7.255-10.771 21.426-14.09 32.614-8.032-12.472-36.96-47.469-63.647-88.583-63.647-51.534 0-93.46 41.926-93.46 93.46s41.926 93.46 93.46 93.46c13.807 0 25 11.193 25 25s-11.193 25-25 25c-79.104 0-143.46-64.355-143.46-143.46s64.355-143.46 143.46-143.46c64.713 0 119.55 43.075 137.36 102.06 8.322-7.607 21.052-8.848 30.818-2.271 11.452 7.712 14.483 23.249 6.772 34.701l-31.193 46.315z" fill="#7ba91f"/>
	

</svg>
